<mxfile host="app.diagrams.net" modified="2020-11-15T17:34:43.014Z" agent="5.0 (Windows NT 10.0; Win64; x64) AppleWebKit/537.36 (KHTML, like Gecko) Chrome/86.0.4240.198 Safari/537.36" etag="IKpIvSFs7YhbvI8AWiqu" version="13.8.7" type="github">
  <diagram id="Fmoa_zMagB_Nu3jSbVuY" name="Page-1">
    <mxGraphModel dx="1422" dy="762" grid="1" gridSize="10" guides="1" tooltips="1" connect="1" arrows="1" fold="1" page="0" pageScale="1" pageWidth="827" pageHeight="1169" math="0" shadow="0">
      <root>
        <mxCell id="0" />
        <mxCell id="1" parent="0" />
        <mxCell id="SPtuCCGmauBYhW9XV9Tn-8" value=":Survey/Search&lt;br&gt;GUI" style="shape=umlLifeline;perimeter=lifelinePerimeter;whiteSpace=wrap;html=1;container=1;collapsible=0;recursiveResize=0;outlineConnect=0;rounded=1;shadow=0;comic=0;labelBackgroundColor=none;strokeWidth=1;fontFamily=Verdana;fontSize=12;align=center;" parent="1" vertex="1">
          <mxGeometry x="178" y="90" width="112" height="580" as="geometry" />
        </mxCell>
        <mxCell id="SPtuCCGmauBYhW9XV9Tn-9" value="" style="html=1;points=[];perimeter=orthogonalPerimeter;rounded=0;shadow=0;comic=0;labelBackgroundColor=none;strokeWidth=1;fontFamily=Verdana;fontSize=12;align=center;" parent="SPtuCCGmauBYhW9XV9Tn-8" vertex="1">
          <mxGeometry x="51" y="100" width="10" height="440" as="geometry" />
        </mxCell>
        <mxCell id="SPtuCCGmauBYhW9XV9Tn-12" value="" style="shape=umlLifeline;participant=umlActor;perimeter=lifelinePerimeter;whiteSpace=wrap;html=1;container=1;collapsible=0;recursiveResize=0;verticalAlign=top;spacingTop=36;outlineConnect=0;" parent="1" vertex="1">
          <mxGeometry x="90" y="130" width="25" height="490" as="geometry" />
        </mxCell>
        <mxCell id="SPtuCCGmauBYhW9XV9Tn-13" value="Student" style="text;html=1;strokeColor=none;fillColor=none;align=center;verticalAlign=middle;whiteSpace=wrap;rounded=0;" parent="1" vertex="1">
          <mxGeometry x="133" y="140" width="30" height="40" as="geometry" />
        </mxCell>
        <mxCell id="SPtuCCGmauBYhW9XV9Tn-14" value="&amp;lt;&amp;lt;buttonExit&amp;gt;&amp;gt;" style="html=1;verticalAlign=bottom;endArrow=block;entryX=-0.159;entryY=0.002;entryDx=0;entryDy=0;entryPerimeter=0;" parent="1" source="SPtuCCGmauBYhW9XV9Tn-12" target="SPtuCCGmauBYhW9XV9Tn-9" edge="1">
          <mxGeometry x="-0.0609" width="80" relative="1" as="geometry">
            <mxPoint x="133" y="190" as="sourcePoint" />
            <mxPoint x="193" y="190" as="targetPoint" />
            <mxPoint as="offset" />
          </mxGeometry>
        </mxCell>
        <mxCell id="SPtuCCGmauBYhW9XV9Tn-19" value="Student exits survey" style="text;align=center;fontStyle=1;verticalAlign=middle;spacingLeft=3;spacingRight=3;strokeColor=none;rotatable=0;points=[[0,0.5],[1,0.5]];portConstraint=eastwest;fontSize=18;" parent="1" vertex="1">
          <mxGeometry x="133" y="30" width="100" height="26" as="geometry" />
        </mxCell>
      </root>
    </mxGraphModel>
  </diagram>
</mxfile>
